<svg xmlns="http://www.w3.org/2000/svg" xmlns:xlink="http://www.w3.org/1999/xlink" xml:space="preserve" version="1.1" style="shape-rendering:geometricPrecision;text-rendering:geometricPrecision;image-rendering:optimizeQuality;" viewBox="0 0 245 387.5" x="0px" y="0px" fill-rule="evenodd" clip-rule="evenodd"><defs><style type="text/css">
   
    .fil0 {fill:black}
   
  </style></defs><g><path class="fil0" d="M97 65c-2,-1 -4,-3 -7,-6 16,-23 8,-43 -23,-59 -13,31 -7,51 18,60 2,4 4,8 6,13 2,8 -3,15 0,31 -8,-3 -16,-7 -25,-11 -1,-29 -23,-42 -66,-39 4,37 26,51 64,42 9,5 18,10 29,14 13,27 22,46 25,59 -5,-4 -12,-8 -19,-12 -6,-27 -24,-37 -55,-30 6,30 23,41 53,33 11,7 19,13 24,17 2,23 -3,40 -15,50l26 0c11,-22 7,-46 -10,-79 16,-3 32,-4 48,-4 19,24 44,26 75,5 -25,-26 -50,-30 -74,-11 -6,-1 -11,-2 -17,-2 4,-7 7,-13 11,-19 36,-4 52,-23 49,-58 -38,4 -56,21 -54,51 -6,7 -13,15 -21,23l-24 1c-4,-6 -7,-12 -11,-18 -13,-20 -9,-40 3,-56 29,7 47,-6 55,-37 -37,-3 -56,9 -57,34 -2,3 -5,6 -8,8zm-60 167l156 0 0 39c0,21 -18,39 -40,39l-77 0c-21,0 -39,-18 -39,-39l0 -39z"/></g></svg>